<svg id="meals" xmlns="http://www.w3.org/2000/svg" xmlns:xlink="http://www.w3.org/1999/xlink" viewBox="0 0 30 30">
  <defs>
    <mask id="mask" x="6.11" y="0.45" width="17.78" height="29.1" maskUnits="userSpaceOnUse">
      <g id="mask-2">
        <path id="path-1" d="M23.88,18.52c0-7.64-1.33-15.71-3.36-17.63a1.22,1.22,0,0,0-2.16.78V28.34a1.23,1.23,0,0,0,2.45,0V19.24h2.46a.61.61,0,0,0,.61-.61A.66.66,0,0,0,23.88,18.52ZM14.69.45a1.22,1.22,0,0,1,1.23,1.21V7.12a4.87,4.87,0,0,1-3.68,4.69V28.34a1.23,1.23,0,0,1-2.45,0V11.81A4.86,4.86,0,0,1,6.11,7.12V1.66a1.23,1.23,0,0,1,2.45,0V7.12A2.41,2.41,0,0,0,9.79,9.21V1.66a1.23,1.23,0,0,1,2.45,0V9.21a2.42,2.42,0,0,0,1.23-2.09V1.66A1.22,1.22,0,0,1,14.69.45Z" fill="#fff"/>
      </g>
    </mask>
  </defs>
  <title>02-meals</title>
  <g id="_300x250" data-name="300x250">
    <g id="_300x250_phuket_06" data-name="300x250/phuket_06">
      <g id="Icons">
        <g id="cutlery">
          <g mask="url(#mask)">
            <polygon id="Fill-1" points="6.11 29.55 23.89 29.55 23.89 0.45 6.11 0.45 6.11 29.55" fill="#fff"/>
          </g>
        </g>
      </g>
    </g>
  </g>
</svg>
