<svg id="points" xmlns="http://www.w3.org/2000/svg" viewBox="0 0 30 30">
  <title>04-points</title>
  <g>
    <g>
      <g>
        <path d="M4,12.25h1.6a1.55,1.55,0,0,1,1.7,1.6,1.63,1.63,0,0,1-1.7,1.7h-1v1.8H4Zm.6.5V15h.9a1.13,1.13,0,0,0,1.2-1.1c0-.7-.4-1.1-1.2-1.1h-.9Z" fill="#fff"/>
        <path d="M11.55,15.85a1.55,1.55,0,0,1-1.7,1.6,1.55,1.55,0,0,1-1.7-1.6v-2a1.55,1.55,0,0,1,1.7-1.6,1.55,1.55,0,0,1,1.7,1.6Zm-2.8,0a1,1,0,0,0,1.1,1.1,1,1,0,0,0,1.1-1.1v-2a1,1,0,0,0-1.1-1.1,1,1,0,0,0-1.1,1.1Z" fill="#fff"/>
        <path d="M13.35,17.35h-.6v-5.1h.6Z" fill="#fff"/>
        <path d="M18,17.35h-.5l-2.2-4v4h-.6v-5.1h.5l2.2,3.9v-3.9H18Z" fill="#fff"/>
        <path d="M18.75,12.25H22v.5h-1.4v4.6H20v-4.6h-1.4v-.5Z" fill="#fff"/>
        <path d="M25.25,13.75v-.1a.92.92,0,0,0-1-.9c-.6,0-1,.3-1,.8s.3.6.6.8l.8.3c.6.2,1.2.5,1.2,1.4a1.53,1.53,0,0,1-1.7,1.5,1.53,1.53,0,0,1-1.7-1.5v-.1H23v.2c0,.5.4.9,1.1.9s1.1-.4,1.1-.9-.4-.8-.9-1l-.7-.3a1.38,1.38,0,0,1-1.1-1.3c0-.8.6-1.3,1.6-1.3a1.5,1.5,0,0,1,1.6,1.5v.1h-.5Z" fill="#fff"/>
      </g>
      <path d="M14.95.25a14.7,14.7,0,1,0,14.7,14.7A14.72,14.72,0,0,0,14.95.25Zm0,27.2A12.4,12.4,0,1,1,27.35,15,12.4,12.4,0,0,1,14.95,27.45Z" fill="#fff"/>
    </g>
    <polygon points="27.45 1.15 26.25 3.05 25.25 3.05 27.05 0.25 27.95 0.25 29.75 3.05 28.65 3.05 27.45 1.15" fill="#fff"/>
  </g>
</svg>
