<svg id="Layer_1" data-name="Layer 1" xmlns="http://www.w3.org/2000/svg" viewBox="0 0 26.52 10.52">
  <title>partnership-logo</title>
  <g>
    <g>
      <polygon points="11.55 9.19 11.96 9.19 11.96 10.52 12.2 10.52 12.2 9.19 12.63 9.19 12.63 9.03 11.55 9.03 11.55 9.19" fill="#39474f"/>
      <path d="M10.76,9.64c-.18-.05-.29-.09-.29-.25s.09-.22.29-.22a.4.4,0,0,1,.31.11h.07V9.1a.74.74,0,0,0-.4-.11c-.29,0-.47.14-.47.41s.13.34.4.43.34.07.34.27-.11.23-.31.23a.45.45,0,0,1-.36-.14h-.07v.18a.74.74,0,0,0,.45.13c.32,0,.52-.14.52-.45S11.06,9.73,10.76,9.64Z" fill="#39474f"/>
      <path d="M7.59,9l-.49,1.42v.07h.2l.13-.41H8l.14.41h.22v-.07L7.84,9Zm-.13.9.22-.67h0l.22.67Z" fill="#39474f"/>
      <path d="M9.59,10c0,.29-.13.38-.32.38s-.36-.07-.36-.38V9H8.67v.94a.51.51,0,0,0,.58.56.5.5,0,0,0,.56-.56V9h-.2v1Z" fill="#39474f"/>
      <rect x="17.52" y="9.03" width="0.23" height="1.49" fill="#39474f"/>
      <path d="M14,9.44c0-.29-.2-.43-.54-.43H13V10.5h.23V9.89h.29l.32.63h.22v-.07l-.32-.59A.41.41,0,0,0,14,9.44Zm-.54.27h-.2V9.19h.2c.2,0,.31.07.31.25S13.71,9.71,13.49,9.71Z" fill="#39474f"/>
      <path d="M18.69,9l-.49,1.42v.07h.2l.13-.41h.54l.14.41h.22v-.07L18.95,9Zm-.11.9.22-.67h0l.22.67Z" fill="#39474f"/>
      <polygon points="16.39 9.03 16.16 9.03 16.16 10.52 17.06 10.52 17.06 10.34 16.39 10.34 16.39 9.03" fill="#39474f"/>
      <path d="M15,9l-.49,1.42v.07h.2l.13-.41h.54l.14.41h.22v-.07L15.22,9Zm-.11.9.22-.67h0l.22.67Z" fill="#39474f"/>
    </g>
    <g>
      <path d="M15,5.12l0,0s0,0,0,0,.41-.58.4-.83S15.17,4,15,4a.65.65,0,0,0-.45.09c-.16.09-.22.07-.32.16a.42.42,0,0,0-.22.36.39.39,0,0,0,.13.32c.07.13.23.23.2.31a2.53,2.53,0,0,1-.22.32,4.49,4.49,0,0,0-.29.43,1.48,1.48,0,0,1-.43.45s-.13-.09,0-.49a2.92,2.92,0,0,0,.07-.34c0-.13,0-.2.05-.23a.47.47,0,0,0-.07-.27,1.26,1.26,0,0,0-.11-.16.78.78,0,0,0-.2-.16,1.16,1.16,0,0,0-.23-.07.51.51,0,0,0-.36.09.77.77,0,0,0-.23.16c-.11.09-.09,0-.09-.07a.32.32,0,0,0-.09-.14.6.6,0,0,0-.22-.09.27.27,0,0,0-.23.05c-.07.07-.05.2-.07.27a1.12,1.12,0,0,1-.2.47,2.16,2.16,0,0,1-.52.68,1.9,1.9,0,0,1-.5.34c-.11,0-.16.05-.27-.11s0-.11,0-.14a3.24,3.24,0,0,0,.36-.32A2.63,2.63,0,0,0,11,5.29a.54.54,0,0,0-.13-.76.92.92,0,0,0-.94-.09,1,1,0,0,0-.31.23A1.07,1.07,0,0,0,9.37,5a1.63,1.63,0,0,0-.05.59A.93.93,0,0,0,9.46,6l0,0c0,.05.05.13,0,.14a1.27,1.27,0,0,1-.38.27,4.68,4.68,0,0,1-.43.23.65.65,0,0,1-.29.05c-.13,0-.18-.13-.23-.2A1.4,1.4,0,0,1,8,5.63S8,5.57,8,5.57a.44.44,0,0,0,.34,0,1,1,0,0,0,.36-.27,1.41,1.41,0,0,0,.47-.79c0-.34-.13-.47-.54-.54l-.14,0A1.11,1.11,0,0,0,8.19,4a1.1,1.1,0,0,0-.41.18,2,2,0,0,0-.2.32A1.45,1.45,0,0,0,7.41,5s0,.07,0,.11a4.74,4.74,0,0,0,0,.5,2.53,2.53,0,0,0,.09.63,1,1,0,0,0,.47.5,1.27,1.27,0,0,0,.72.23h0a3,3,0,0,0,1.13-.47s0,0,0,0a1.21,1.21,0,0,0,.49.23.84.84,0,0,0,.61-.11,1.37,1.37,0,0,0,.29-.2,1.65,1.65,0,0,1,.27-.25c.07,0,0,.09,0,.16a.22.22,0,0,0,.09.22.24.24,0,0,0,.14,0c.09,0,.13,0,.18,0A.6.6,0,0,0,12,6.35a3,3,0,0,1,.27-.59,2.44,2.44,0,0,1,.45-.54c.41-.29.16.38.13.5a1.31,1.31,0,0,0,0,.76.55.55,0,0,0,.54.32.36.36,0,0,0,.23-.07A.89.89,0,0,0,14,6.4c.07-.09.18-.32.27-.41l.2-.25a1,1,0,0,0,.18-.27s0,0,0,0a2.33,2.33,0,0,1,.29.32.75.75,0,0,1,.16.4.46.46,0,0,1-.13.29.37.37,0,0,1-.5.05c-.09-.07-.13-.18-.2-.23s-.09,0-.11.07a.29.29,0,0,0,0,.18.6.6,0,0,0,.2.29,1,1,0,0,0,.79.22.79.79,0,0,0,.59-.54.83.83,0,0,0-.25-.86C15.27,5.41,15,5.18,15,5.12ZM8,5.29a.79.79,0,0,1,0-.18S8,5,8.06,5s0-.07,0-.09l0-.09,0,0a1.23,1.23,0,0,1,.22-.38.42.42,0,0,1,.13-.13.11.11,0,0,1,.14,0,.12.12,0,0,1,.05.11,1.08,1.08,0,0,1-.41.76l-.22.16s0,.05-.05,0S8,5.3,8,5.29Zm2,.49s0,0,0-.05a1.71,1.71,0,0,1,.13-.83c.05-.11.25-.25.36-.18s0,0,.05.05-.05.29-.13.41a4.23,4.23,0,0,1-.29.47l-.07.09S10,5.77,10,5.77Zm4.61-1.3a.77.77,0,0,1,.38-.2c.07,0-.29.47-.29.47S14.56,4.53,14.63,4.48Z" fill="#39474f"/>
      <path d="M6.53,6.94l-.32.14c-.09,0-.18.11-.45.22a1.14,1.14,0,0,1-1,0A2,2,0,0,1,4.16,7c-.2-.11-.31-.22-.41-.27a2.54,2.54,0,0,1-.31-.25s.09-.09.27-.31S3.89,6,4,5.83l.18-.22a2.64,2.64,0,0,0,.16-.31,2.71,2.71,0,0,0,.2-.4,4,4,0,0,0,.29-.65,3.14,3.14,0,0,0,.27-.94A3.61,3.61,0,0,0,5,2.14a1.89,1.89,0,0,0-.34-1A2,2,0,0,0,3.22.43a2.72,2.72,0,0,0-1.76.76A5.15,5.15,0,0,0,.31,3.05c-.05.16-.14.4-.2.59a1.11,1.11,0,0,0-.05.2,1.36,1.36,0,0,0,0,.27c0,.36,0,.67,0,.67a1.91,1.91,0,0,0,.05.61.73.73,0,0,0,.22.43l0,0a.36.36,0,0,0,.18,0A.72.72,0,0,0,.9,5.48a.17.17,0,0,0,0-.22.82.82,0,0,1-.2-.49,4,4,0,0,1,.54-2.45c.11-.2.22-.36.31-.5a.38.38,0,0,0,.07-.11.55.55,0,0,0,.09-.13A2.23,2.23,0,0,1,2.37.9a1.07,1.07,0,0,1,.88,0,1.79,1.79,0,0,1,.49.25,1.29,1.29,0,0,1,.45.52,1.83,1.83,0,0,1,.25.94,3.26,3.26,0,0,1-.14,1.3A4.7,4.7,0,0,1,4,4.55a2.91,2.91,0,0,1-.38.65l-.23.32a2.7,2.7,0,0,1-.5.56l-.32-.22a.9.9,0,0,0-.25-.14A2.27,2.27,0,0,0,2,5.59a1.05,1.05,0,0,0-.34,0,.73.73,0,0,0-.47.14A.8.8,0,0,0,1,6,.69.69,0,0,0,1,6.69.64.64,0,0,0,1.39,7a1.43,1.43,0,0,0,.54.11,1.6,1.6,0,0,0,.81-.16l.14-.05a4.23,4.23,0,0,0,.85.49l.13.05a.16.16,0,0,0,.09,0L4,7.5a3,3,0,0,0,1.21.2,2.09,2.09,0,0,0,.56-.05,1.9,1.9,0,0,0,.34-.11,1,1,0,0,0,.27-.18C6.53,7.26,6.76,6.9,6.53,6.94ZM1.89,6.67a.68.68,0,0,1-.49-.11c-.07-.05-.18-.05-.18-.23s.13-.2.32-.16a1.69,1.69,0,0,1,.58.2c.22.11.22.14.22.14A1.89,1.89,0,0,1,1.89,6.67Z" fill="#39474f"/>
      <path d="M7.09,6.44A4.15,4.15,0,0,1,7,5.92a1.75,1.75,0,0,1,0-.31.51.51,0,0,1,.07-.23c.05-.14,0-.23,0-.27A.46.46,0,0,0,6.84,5a.24.24,0,0,0-.22.11c-.05.09-.22.36-.31.49a5.49,5.49,0,0,1-.4.58c-.05.05-.09.14-.13.13s0-.05,0-.05a2.87,2.87,0,0,1,.34-1.39,3.25,3.25,0,0,1,.18-.31,1,1,0,0,0,.14-.18c0-.07,0-.11-.09-.18a.56.56,0,0,0-.45-.13.47.47,0,0,0-.29.2,2.78,2.78,0,0,0-.25.41,2.4,2.4,0,0,1-.45.52c-.16.14-.22.16-.13.2a.7.7,0,0,0,.52,0c0,.11,0,.25-.05.31A1.62,1.62,0,0,0,5.2,6a1.07,1.07,0,0,0,0,.32c0,.05.07.13.14.22a.77.77,0,0,0,.22.2.48.48,0,0,0,.36.07.61.61,0,0,0,.25-.16,1.78,1.78,0,0,0,.49-.52.35.35,0,0,0,0,.13.56.56,0,0,0,0,.14.32.32,0,0,0,.16.14C7.07,6.64,7.12,6.55,7.09,6.44Z" fill="#39474f"/>
      <path d="M26.52,1.83a1.15,1.15,0,0,0-.09-.58A.48.48,0,0,0,26,1a.49.49,0,0,0-.38.22,4.43,4.43,0,0,0-.4.61c0,.07-.18.41-.2.47s-.13.36-.2.68-.11.52-.16.72,0,.14-.05.2,0,.14-.05.2a.56.56,0,0,0,0,.14l0,.13c0,.07,0,.09-.11.07l-.2,0a1.24,1.24,0,0,0-.43.05,1.51,1.51,0,0,0-.54.45,1.06,1.06,0,0,0-.29.38c-.07.16-.09.25-.11.29a3.5,3.5,0,0,1-.22.52c-.05.07-.31.38-.47.36S22,6.33,22,6.24a.45.45,0,0,1,0-.14.26.26,0,0,1,0-.11l.05-.23c0-.13.11-.27.13-.38s0-.27.05-.31a.5.5,0,0,0-.09-.36.69.69,0,0,0-.38-.22.76.76,0,0,0-.65.23s-.07.11-.13.11,0-.16-.09-.2a.46.46,0,0,0-.38,0,.39.39,0,0,0-.2.34,1,1,0,0,1,0,.31,1.7,1.7,0,0,0-.09.32c-.09.38-.16.76-.43.76-.11,0-.22-.45-.22-.45a2,2,0,0,1,0-.47l0-.05c0-.09,0-.16.05-.29s0-.14,0-.2,0,0-.05-.07a.59.59,0,0,0-.43-.05h0c-.09,0-.13.09-.16.16s-.09.18-.13.25l-.05.11a3.81,3.81,0,0,1-.2.38,1.59,1.59,0,0,1-.14.2l-.05.05c-.29.38-.36.34-.4.34S18,6.15,18,6.11,18,6,18,6s0-.09,0-.13a2.56,2.56,0,0,1,.27-.68,3.44,3.44,0,0,1,.45-.59,1.21,1.21,0,0,1,.31-.27c.11-.05.16-.09.27,0a.25.25,0,0,0,.27.09.17.17,0,0,0,.13-.25A.4.4,0,0,0,19.54,4a1.31,1.31,0,0,0-.38,0,.88.88,0,0,0-.38.07,1.41,1.41,0,0,0-.34.27,3.06,3.06,0,0,0-.58.72,2.3,2.3,0,0,0-.31.76v0a.81.81,0,0,0,0,.41.75.75,0,0,0,.29.36l0,0c.11,0,.14.09.27.11a.89.89,0,0,0,.29-.05.77.77,0,0,0,.34-.18l.32-.36h0a.14.14,0,0,1,.07-.07s0,.11.13.2a.94.94,0,0,0,.34.2l.22.05a.74.74,0,0,0,.67-.05.53.53,0,0,0,.16-.18,1.5,1.5,0,0,0,.16-.36,2.27,2.27,0,0,1,.58-.83s.2,0,.14.16a1.6,1.6,0,0,0,0,1.28.69.69,0,0,0,.38.29.92.92,0,0,0,.67-.31l.2-.23s0,0,0,0,0,0,0,0a.13.13,0,0,0,.05.05.62.62,0,0,0,.22.16A.56.56,0,0,0,24,6.46l.14-.13c.07-.07.23-.23.31-.32a2.63,2.63,0,0,0,.2.67,1.58,1.58,0,0,0,.11.18,1,1,0,0,0,.11.18.81.81,0,0,0,.5.29c.11,0,.22,0,.2-.11A.74.74,0,0,0,25.4,7a2.49,2.49,0,0,1-.31-.94,2,2,0,0,1,0-1,8.73,8.73,0,0,0,.5-.74c.13-.2.23-.4.34-.59a4.58,4.58,0,0,0,.31-.59c0-.11.14-.36.2-.49a2.12,2.12,0,0,0,.07-.45ZM24.38,5.3a2.48,2.48,0,0,1-.5.72s-.07.05-.09.09-.22.22-.31.22a.11.11,0,0,1-.07,0c-.09-.09,0-.38.07-.58a3.81,3.81,0,0,1,.68-.94.24.24,0,0,1,.23,0C24.47,4.78,24.45,4.93,24.38,5.3Zm1.35-2.18a4.28,4.28,0,0,1-.23.56c0,.05-.11.18-.2.31s-.09.11-.11.09,0-.11,0-.13a15.86,15.86,0,0,1,.38-1.57,6.49,6.49,0,0,1,.38-1s.05-.05.07-.05h0C26.16,1.36,26.23,1.89,25.73,3.13Z" fill="#39474f"/>
      <path d="M19.07,7.26c.11-.29-.11-.14-.16-.13l-.22.11a4.08,4.08,0,0,1-.59.23.71.71,0,0,1-.43,0,1.14,1.14,0,0,1-.41-.29A1.38,1.38,0,0,1,17,6.6a2.7,2.7,0,0,1,0-.76,3.25,3.25,0,0,0,.09-.56,3.17,3.17,0,0,1,0-.34,1.37,1.37,0,0,1,.11-.36,3.65,3.65,0,0,0,.23-.32l0,0c.09-.14.38-.49.59-.76s.23-.27.27-.32.34-.54.43-.68.16-.31.22-.43.05-.11.07-.16a2.06,2.06,0,0,0,.13-.4,1.37,1.37,0,0,0,.05-.38A1.59,1.59,0,0,0,19.16.3c0-.14-.27-.22-.34-.25a.55.55,0,0,0-.52,0,1.66,1.66,0,0,0-.67.61c-.05.09-.09.27-.14.36l-.07.13c-.11.23-.18.47-.25.67s-.22.68-.27.92-.07.34-.13.56-.11.49-.13.59a2.84,2.84,0,0,0-.09.45v0c-.27.34-.45.59-.49.65s-.05.05-.07.09-.14.18-.13.22.22,0,.25,0a.69.69,0,0,0,.2-.09l0,0h0a0,0,0,0,1,0,0s0,0,0,0a.3.3,0,0,1,0,.18s0,.2,0,.22a1.55,1.55,0,0,0,0,.29,4.32,4.32,0,0,0,0,.49,1.58,1.58,0,0,0,.27.67c.05.07.16.14.25.23a.87.87,0,0,0,.2.16,1.74,1.74,0,0,0,1,.25,2,2,0,0,0,.61-.14A.91.91,0,0,0,19.07,7.26Zm-1.75-3.9h0c0-.09.38-1.26.59-1.82A5.44,5.44,0,0,1,18.53.28s.05,0,.09,0h0s.05,0,.09,0a.23.23,0,0,1,.09.2,4.82,4.82,0,0,1-.27,1.21,7.25,7.25,0,0,1-.65,1.24c-.11.16-.4.52-.52.52h0C17.33,3.45,17.31,3.41,17.33,3.36Z" fill="#39474f"/>
    </g>
  </g>
</svg>
